<svg xmlns="http://www.w3.org/2000/svg" viewBox="6.519999999999996 38 561.9600219726562 497.8445066617987"> <g transform="rotate(0 287.4998249898367 234.8965071325497)"><svg xmlns="http://www.w3.org/2000/svg" viewBox="0 0 97.79000091552734 110.77000427246094" height="253.79301426509937" width="224.0536499796734" y="108" x="175.473" preserveAspectRatio="xMinYMin" style="overflow: visible;"><circle id="Layer_1-2" dataName="Layer 1" class="cls-1" cx="48.81" cy="6.61" r="6.61" style="fill: #00D9C0; fill-opacity: 1;"></circle><path id="Layer_1-2" dataName="Layer 1" class="cls-1" d="M32.48,23.59l0,0c1.27,1,4.17,2.15,9.75-.38A29.47,29.47,0,0,0,50.93,17c-3.19.87-6.37-.21-9.59-3.23h0a6.6,6.6,0,1,0-8.86,9.79Z" style="fill: #00D9C0; fill-opacity: 1;"></path><path id="Layer_1-2" dataName="Layer 1" class="cls-1" d="M60.8,12a6.53,6.53,0,0,0-2.43.47,27.6,27.6,0,0,0-5.68,4.64,33.28,33.28,0,0,1-9.9,7.31A16,16,0,0,1,36.29,26a9.78,9.78,0,0,1-1.49-.12l9.29,9.3.09.09,0,0h0a6.59,6.59,0,0,0,9.85-.71l10.67-10.7A6.61,6.61,0,0,0,60.8,12Z" style="fill: #00D9C0; fill-opacity: 1;"></path><circle id="Layer_1-2" dataName="Layer 1" class="cls-2" cx="6.61" cy="31.07" r="6.61" style="fill: #00D9C0; fill-opacity: 1;"></circle><path id="Layer_1-2" dataName="Layer 1" class="cls-2" d="M13.15,53.7h0c1.48-.61,4-2.54,4.55-8.63a29.45,29.45,0,0,0-1-10.62c-.85,3.19-3.37,5.41-7.6,6.69h0A6.6,6.6,0,1,0,13.15,53.7Z" style="fill: #00D9C0; fill-opacity: 1;"></path><path id="Layer_1-2" dataName="Layer 1" class="cls-2" d="M17.27,23.38a6.53,6.53,0,0,0-.81,2.34A27.09,27.09,0,0,0,17.64,33,33.54,33.54,0,0,1,19,45.18a15.89,15.89,0,0,1-1.84,6.44,8.8,8.8,0,0,1-.85,1.23L29,49.46l.13,0h0a6.58,6.58,0,0,0,4.3-8.88l-3.92-14.6a6.61,6.61,0,0,0-12.29-2.56Z" style="fill: #00D9C0; fill-opacity: 1;"></path><circle id="Layer_1-2" dataName="Layer 1" class="cls-3" cx="6.7" cy="79.85" r="6.61" style="fill: #05CEAA; fill-opacity: 1;"></circle><path id="Layer_1-2" dataName="Layer 1" class="cls-3" d="M29.56,85.5v0c.21-1.59-.22-4.69-5.19-8.26a29.53,29.53,0,0,0-9.73-4.4c2.35,2.33,3,5.63,2,9.93h0A6.6,6.6,0,1,0,29.56,85.5Z" style="fill: #05CEAA; fill-opacity: 1;"></path><path id="Layer_1-2" dataName="Layer 1" class="cls-3" d="M5.36,66.76A6.58,6.58,0,0,0,7,68.64a27.55,27.55,0,0,0,6.86,2.6,33.4,33.4,0,0,1,11.28,4.92A15.93,15.93,0,0,1,29.78,81a9,9,0,0,1,.64,1.35l3.42-12.7,0-.12v0h0a6.59,6.59,0,0,0-5.54-8.18l-14.6-3.89a6.6,6.6,0,0,0-8.37,9.35Z" style="fill: #05CEAA; fill-opacity: 1;"></path><circle id="Layer_1-2" dataName="Layer 1" class="cls-4" cx="48.98" cy="104.16" r="6.61" style="fill: #00D9C0; fill-opacity: 1;"></circle><path id="Layer_1-2" dataName="Layer 1" class="cls-4" d="M65.31,87.18l0,0c-1.27-1-4.18-2.15-9.75.37a29.89,29.89,0,0,0-8.68,6.22c3.2-.86,6.38.22,9.6,3.24h0A6.54,6.54,0,0,0,61,98.77a6.61,6.61,0,0,0,4.34-11.59Z" style="fill: #00D9C0; fill-opacity: 1;"></path><path id="Layer_1-2" dataName="Layer 1" class="cls-4" d="M37,98.77a6.62,6.62,0,0,0,2.44-.46,27.33,27.33,0,0,0,5.68-4.65,33.44,33.44,0,0,1,9.9-7.3,16,16,0,0,1,6.49-1.63,9.57,9.57,0,0,1,1.49.12L53.7,75.54l-.09-.09h0a6.59,6.59,0,0,0-9.85.71L33.06,86.85A6.6,6.6,0,0,0,37,98.77Z" style="fill: #00D9C0; fill-opacity: 1;"></path><circle id="Layer_1-2" dataName="Layer 1" class="cls-5" cx="91.18" cy="79.7" r="6.61" style="fill: #00D9C0; fill-opacity: 1;"></circle><path id="Layer_1-2" dataName="Layer 1" class="cls-5" d="M84.64,57.07h0c-1.48.61-3.95,2.54-4.56,8.63a29.68,29.68,0,0,0,1,10.62c.85-3.2,3.38-5.41,7.61-6.69h0a6.6,6.6,0,1,0-4-12.56Z" style="fill: #00D9C0; fill-opacity: 1;"></path><path id="Layer_1-2" dataName="Layer 1" class="cls-5" d="M80.51,87.39a6.62,6.62,0,0,0,.82-2.34,27.43,27.43,0,0,0-1.18-7.24,33.14,33.14,0,0,1-1.38-12.23,15.94,15.94,0,0,1,1.84-6.44,8.43,8.43,0,0,1,.85-1.22L68.75,61.3l-.12,0h0a6.61,6.61,0,0,0-4.31,8.89l3.93,14.6a6.6,6.6,0,0,0,12.28,2.56Z" style="fill: #00D9C0; fill-opacity: 1;"></path><circle id="Layer_1-2" dataName="Layer 1" class="cls-6" cx="91.09" cy="30.92" r="6.61" style="fill: #00D9C0; fill-opacity: 1;"></circle><path id="Layer_1-2" dataName="Layer 1" class="cls-6" d="M68.22,25.27v0c-.21,1.59.23,4.69,5.2,8.26A29.49,29.49,0,0,0,83.13,38c-2.34-2.33-3-5.63-2-9.93h0a6.52,6.52,0,0,0-.7-4.82,6.61,6.61,0,0,0-12.21,2Z" style="fill: #00D9C0; fill-opacity: 1;"></path><path id="Layer_1-2" dataName="Layer 1" class="cls-6" d="M92.42,44a6.52,6.52,0,0,0-1.62-1.87,27.4,27.4,0,0,0-6.86-2.6,33.36,33.36,0,0,1-11.27-4.92A15.93,15.93,0,0,1,68,29.8a9,9,0,0,1-.64-1.35L64,41.14l0,.13v0h0a6.59,6.59,0,0,0,5.55,8.17l14.6,3.9A6.6,6.6,0,0,0,92.42,44Z" style="fill: #00D9C0; fill-opacity: 1;"></path></svg></g> <g transform="rotate(0 287.5 453.24450628032895)"><svg y="440.6445058988592" viewBox="1.5399999618530273 9.029999732971191 393.3999938964844 25.200000762939453" x="90.80000305175781" height="25.200000762939453" width="393.3999938964844" style="overflow: visible;"><g fill="#FF6B6B" fill-opacity="1" style=""><path d="M14.63 34.23L14.63 34.23Q11.83 34.23 9.43 33.30Q7.04 32.38 5.27 30.68Q3.50 28.98 2.52 26.67Q1.54 24.36 1.54 21.63L1.54 21.63Q1.54 18.90 2.52 16.59Q3.50 14.28 5.29 12.58Q7.07 10.89 9.45 9.96Q11.83 9.03 14.67 9.03L14.67 9.03Q17.68 9.03 20.16 10.06Q22.65 11.09 24.36 13.13L24.36 13.13L21.42 15.89Q20.09 14.46 18.45 13.74Q16.80 13.02 14.88 13.02L14.88 13.02Q12.95 13.02 11.36 13.65Q9.77 14.28 8.59 15.44Q7.42 16.59 6.77 18.16Q6.13 19.74 6.13 21.63L6.13 21.63Q6.13 23.52 6.77 25.10Q7.42 26.67 8.59 27.83Q9.77 28.98 11.36 29.61Q12.95 30.24 14.88 30.24L14.88 30.24Q16.80 30.24 18.45 29.52Q20.09 28.81 21.42 27.34L21.42 27.34L24.36 30.14Q22.65 32.13 20.16 33.18Q17.68 34.23 14.63 34.23ZM38.35 33.88L33.80 33.88L33.80 9.38L43.85 9.38Q48.75 9.38 51.53 11.69Q54.31 14 54.31 18.09L54.31 18.09Q54.31 20.79 53.05 22.73Q51.79 24.68 49.47 25.71Q47.14 26.74 43.88 26.74L43.88 26.74L36.32 26.74L38.35 24.68L38.35 33.88ZM54.73 33.88L49.83 33.88L43.64 24.99L48.50 24.99L54.73 33.88ZM38.35 10.99L38.35 25.16L36.32 23.00L43.67 23.00Q46.68 23.00 48.21 21.70Q49.73 20.41 49.73 18.09L49.73 18.09Q49.73 15.75 48.21 14.49Q46.68 13.23 43.67 13.23L43.67 13.23L36.32 13.23L38.35 10.99ZM66.00 33.88L61.31 33.88L72.33 9.38L76.81 9.38L87.87 33.88L83.11 33.88L73.63 11.80L75.45 11.80L66.00 33.88ZM82.06 28.21L66.38 28.21L67.61 24.64L80.84 24.64L82.06 28.21ZM107.71 34.23L107.71 34.23Q104.91 34.23 102.52 33.30Q100.12 32.38 98.35 30.68Q96.58 28.98 95.60 26.67Q94.62 24.36 94.62 21.63L94.62 21.63Q94.62 18.90 95.60 16.59Q96.58 14.28 98.37 12.58Q100.15 10.89 102.53 9.96Q104.91 9.03 107.75 9.03L107.75 9.03Q110.76 9.03 113.24 10.06Q115.73 11.09 117.44 13.13L117.44 13.13L114.50 15.89Q113.17 14.46 111.53 13.74Q109.88 13.02 107.96 13.02L107.96 13.02Q106.03 13.02 104.44 13.65Q102.85 14.28 101.68 15.44Q100.50 16.59 99.86 18.16Q99.21 19.74 99.21 21.63L99.21 21.63Q99.21 23.52 99.86 25.10Q100.50 26.67 101.68 27.83Q102.85 28.98 104.44 29.61Q106.03 30.24 107.96 30.24L107.96 30.24Q109.88 30.24 111.53 29.52Q113.17 28.81 114.50 27.34L114.50 27.34L117.44 30.14Q115.73 32.13 113.24 33.18Q110.76 34.23 107.71 34.23ZM135.46 23.48L130.95 28.11L130.70 22.72L143.55 9.38L148.66 9.38L137.98 20.72L135.46 23.48ZM131.44 33.88L126.89 33.88L126.89 9.38L131.44 9.38L131.44 33.88ZM149.29 33.88L143.97 33.88L134.59 22.72L137.60 19.39L149.29 33.88ZM182.35 33.88L177.80 33.88L177.80 13.23L169.68 13.23L169.68 9.38L190.47 9.38L190.47 13.23L182.35 13.23L182.35 33.88ZM221.06 33.88L216.51 33.88L216.51 9.38L221.06 9.38L221.06 33.88ZM203.84 33.88L199.29 33.88L199.29 9.38L203.84 9.38L203.84 33.88ZM216.86 23.38L203.45 23.38L203.45 19.50L216.86 19.50L216.86 23.38ZM251.40 33.88L233.02 33.88L233.02 9.38L250.91 9.38L250.91 13.20L237.57 13.20L237.57 30.07L251.40 30.07L251.40 33.88ZM249.40 23.31L237.22 23.31L237.22 19.57L249.40 19.57L249.40 23.31ZM288.24 34.23L288.24 34.23Q285.44 34.23 283.04 33.30Q280.65 32.38 278.88 30.68Q277.11 28.98 276.13 26.67Q275.15 24.36 275.15 21.63L275.15 21.63Q275.15 18.90 276.13 16.59Q277.11 14.28 278.90 12.58Q280.68 10.89 283.06 9.96Q285.44 9.03 288.28 9.03L288.28 9.03Q291.29 9.03 293.77 10.06Q296.26 11.09 297.97 13.13L297.97 13.13L295.03 15.89Q293.70 14.46 292.06 13.74Q290.41 13.02 288.49 13.02L288.49 13.02Q286.56 13.02 284.97 13.65Q283.38 14.28 282.20 15.44Q281.03 16.59 280.38 18.16Q279.74 19.74 279.74 21.63L279.74 21.63Q279.74 23.52 280.38 25.10Q281.03 26.67 282.20 27.83Q283.38 28.98 284.97 29.61Q286.56 30.24 288.49 30.24L288.49 30.24Q290.41 30.24 292.06 29.52Q293.70 28.81 295.03 27.34L295.03 27.34L297.97 30.14Q296.26 32.13 293.77 33.18Q291.29 34.23 288.24 34.23ZM318.90 34.23L318.90 34.23Q316.03 34.23 313.61 33.29Q311.20 32.34 309.41 30.64Q307.63 28.95 306.65 26.65Q305.67 24.36 305.67 21.63L305.67 21.63Q305.67 18.90 306.65 16.61Q307.63 14.32 309.41 12.62Q311.20 10.92 313.61 9.98Q316.03 9.03 318.86 9.03L318.86 9.03Q321.73 9.03 324.13 9.98Q326.53 10.92 328.31 12.62Q330.10 14.32 331.08 16.61Q332.06 18.90 332.06 21.63L332.06 21.63Q332.06 24.36 331.08 26.67Q330.10 28.98 328.31 30.66Q326.53 32.34 324.13 33.29Q321.73 34.23 318.90 34.23ZM318.86 30.24L318.86 30.24Q320.72 30.24 322.29 29.61Q323.87 28.98 325.02 27.81Q326.18 26.64 326.82 25.08Q327.47 23.52 327.47 21.63L327.47 21.63Q327.47 19.74 326.82 18.18Q326.18 16.63 325.02 15.45Q323.87 14.28 322.29 13.65Q320.72 13.02 318.86 13.02L318.86 13.02Q317.01 13.02 315.45 13.65Q313.89 14.28 312.72 15.45Q311.55 16.63 310.90 18.18Q310.25 19.74 310.25 21.63L310.25 21.63Q310.25 23.48 310.90 25.06Q311.55 26.64 312.70 27.81Q313.86 28.98 315.43 29.61Q317.01 30.24 318.86 30.24ZM352.98 33.88L342.27 33.88L342.27 9.38L352.98 9.38Q356.97 9.38 359.98 10.92Q362.99 12.46 364.67 15.19Q366.35 17.92 366.35 21.63L366.35 21.63Q366.35 25.30 364.67 28.05Q362.99 30.80 359.98 32.34Q356.97 33.88 352.98 33.88L352.98 33.88ZM346.82 13.23L346.82 30.03L352.77 30.03Q355.50 30.03 357.53 28.98Q359.56 27.93 360.66 26.04Q361.77 24.15 361.77 21.63L361.77 21.63Q361.77 19.08 360.66 17.20Q359.56 15.33 357.53 14.28Q355.50 13.23 352.77 13.23L352.77 13.23L346.82 13.23ZM394.94 33.88L376.56 33.88L376.56 9.38L394.45 9.38L394.45 13.20L381.11 13.20L381.11 30.07L394.94 30.07L394.94 33.88ZM392.94 23.31L380.76 23.31L380.76 19.57L392.94 19.57L392.94 23.31Z" transform="translate(0, 0)"></path></g></svg></g> <g transform="rotate(0 287.5000109863281 401.7580001525879)"><svg y="373.793" viewBox="1.9600000381469727 12.670000076293945 421.96002197265625 55.93000030517578" x="76.52" height="55.93000030517578" width="421.96002197265625" style="overflow: visible;"><g fill="#1A2332" fill-opacity="1" style=""><path d="M21.91 68.60L21.91 68.60Q16.03 68.60 10.64 67.03Q5.25 65.45 1.96 62.93L1.96 62.93L5.81 54.39Q8.96 56.63 13.27 58.07Q17.57 59.50 21.98 59.50L21.98 59.50Q25.34 59.50 27.41 58.84Q29.47 58.17 30.45 56.98Q31.43 55.79 31.43 54.25L31.43 54.25Q31.43 52.29 29.89 51.14Q28.35 49.98 25.83 49.25Q23.31 48.51 20.27 47.84Q17.22 47.18 14.18 46.20Q11.13 45.22 8.61 43.68Q6.09 42.14 4.52 39.62Q2.94 37.10 2.94 33.18L2.94 33.18Q2.94 28.98 5.22 25.52Q7.49 22.05 12.08 19.98Q16.66 17.92 23.59 17.92L23.59 17.92Q28.21 17.92 32.69 19.01Q37.17 20.09 40.60 22.26L40.60 22.26L37.10 30.87Q33.67 28.91 30.24 27.97Q26.81 27.02 23.52 27.02L23.52 27.02Q20.23 27.02 18.13 27.79Q16.03 28.56 15.12 29.79Q14.21 31.01 14.21 32.62L14.21 32.62Q14.21 34.51 15.75 35.66Q17.29 36.82 19.81 37.52Q22.33 38.22 25.38 38.92Q28.42 39.62 31.47 40.53Q34.51 41.44 37.03 42.98Q39.55 44.52 41.13 47.04Q42.70 49.56 42.70 53.41L42.70 53.41Q42.70 57.54 40.39 60.97Q38.08 64.40 33.50 66.50Q28.91 68.60 21.91 68.60ZM67.62 68.32L67.62 68.32Q61.60 68.32 56.95 65.80Q52.29 63.28 49.60 58.91Q46.90 54.53 46.90 48.93L46.90 48.93Q46.90 43.26 49.60 38.89Q52.29 34.51 56.95 32.02Q61.60 29.54 67.62 29.54L67.62 29.54Q73.57 29.54 78.26 32.02Q82.95 34.51 85.61 38.85Q88.27 43.19 88.27 48.93L88.27 48.93Q88.27 54.53 85.61 58.91Q82.95 63.28 78.26 65.80Q73.57 68.32 67.62 68.32ZM67.62 59.36L67.62 59.36Q70.35 59.36 72.52 58.10Q74.69 56.84 75.95 54.50Q77.21 52.15 77.21 48.93L77.21 48.93Q77.21 45.64 75.95 43.33Q74.69 41.02 72.52 39.76Q70.35 38.50 67.62 38.50L67.62 38.50Q64.89 38.50 62.72 39.76Q60.55 41.02 59.26 43.33Q57.96 45.64 57.96 48.93L57.96 48.93Q57.96 52.15 59.26 54.50Q60.55 56.84 62.72 58.10Q64.89 59.36 67.62 59.36ZM113.75 68.32L113.75 68.32Q107.66 68.32 102.90 65.84Q98.14 63.35 95.45 58.94Q92.75 54.53 92.75 48.93L92.75 48.93Q92.75 43.26 95.45 38.89Q98.14 34.51 102.90 32.02Q107.66 29.54 113.75 29.54L113.75 29.54Q119.70 29.54 124.11 32.02Q128.52 34.51 130.62 39.13L130.62 39.13L122.15 43.68Q120.68 41.02 118.48 39.76Q116.27 38.50 113.68 38.50L113.68 38.50Q110.88 38.50 108.64 39.76Q106.40 41.02 105.11 43.33Q103.81 45.64 103.81 48.93L103.81 48.93Q103.81 52.22 105.11 54.53Q106.40 56.84 108.64 58.10Q110.88 59.36 113.68 59.36L113.68 59.36Q116.27 59.36 118.48 58.14Q120.68 56.91 122.15 54.18L122.15 54.18L130.62 58.80Q128.52 63.35 124.11 65.84Q119.70 68.32 113.75 68.32ZM147.84 67.76L136.92 67.76L136.92 30.10L147.84 30.10L147.84 67.76ZM142.38 24.85L142.38 24.85Q139.37 24.85 137.48 23.10Q135.59 21.35 135.59 18.76L135.59 18.76Q135.59 16.17 137.48 14.42Q139.37 12.67 142.38 12.67L142.38 12.67Q145.39 12.67 147.28 14.31Q149.17 15.96 149.17 18.55L149.17 18.55Q149.17 21.28 147.31 23.06Q145.46 24.85 142.38 24.85ZM191.31 67.76L181.09 67.76L181.09 60.41L180.39 58.80L180.39 45.64Q180.39 42.14 178.25 40.18Q176.12 38.22 171.71 38.22L171.71 38.22Q168.70 38.22 165.79 39.17Q162.89 40.11 160.86 41.72L160.86 41.72L156.94 34.09Q160.02 31.92 164.36 30.73Q168.70 29.54 173.18 29.54L173.18 29.54Q181.79 29.54 186.55 33.60Q191.31 37.66 191.31 46.27L191.31 46.27L191.31 67.76ZM169.61 68.32L169.61 68.32Q165.20 68.32 162.05 66.82Q158.90 65.31 157.22 62.72Q155.54 60.13 155.54 56.91L155.54 56.91Q155.54 53.55 157.19 51.03Q158.83 48.51 162.40 47.08Q165.97 45.64 171.71 45.64L171.71 45.64L181.72 45.64L181.72 52.01L172.90 52.01Q169.05 52.01 167.61 53.27Q166.18 54.53 166.18 56.42L166.18 56.42Q166.18 58.52 167.82 59.75Q169.47 60.97 172.34 60.97L172.34 60.97Q175.07 60.97 177.24 59.68Q179.41 58.38 180.39 55.86L180.39 55.86L182.07 60.90Q180.88 64.54 177.73 66.43Q174.58 68.32 169.61 68.32ZM212.10 67.76L201.18 67.76L201.18 15.82L212.10 15.82L212.10 67.76ZM266.28 68.60L266.28 68.60Q260.61 68.60 255.74 66.75Q250.88 64.89 247.31 61.46Q243.74 58.03 241.74 53.41Q239.75 48.79 239.75 43.26L239.75 43.26Q239.75 37.73 241.74 33.11Q243.74 28.49 247.34 25.06Q250.95 21.63 255.78 19.77Q260.61 17.92 266.35 17.92L266.35 17.92Q272.72 17.92 277.87 20.13Q283.01 22.33 286.51 26.60L286.51 26.60L279.23 33.32Q276.71 30.45 273.63 29.02Q270.55 27.58 266.91 27.58L266.91 27.58Q263.48 27.58 260.61 28.70Q257.74 29.82 255.64 31.92Q253.54 34.02 252.38 36.89Q251.23 39.76 251.23 43.26L251.23 43.26Q251.23 46.76 252.38 49.63Q253.54 52.50 255.64 54.60Q257.74 56.70 260.61 57.82Q263.48 58.94 266.91 58.94L266.91 58.94Q270.55 58.94 273.63 57.51Q276.71 56.07 279.23 53.13L279.23 53.13L286.51 59.85Q283.01 64.12 277.87 66.36Q272.72 68.60 266.28 68.60ZM310.66 68.32L310.66 68.32Q304.64 68.32 299.99 65.80Q295.33 63.28 292.63 58.91Q289.94 54.53 289.94 48.93L289.94 48.93Q289.94 43.26 292.63 38.89Q295.33 34.51 299.99 32.02Q304.64 29.54 310.66 29.54L310.66 29.54Q316.61 29.54 321.30 32.02Q325.99 34.51 328.65 38.85Q331.31 43.19 331.31 48.93L331.31 48.93Q331.31 54.53 328.65 58.91Q325.99 63.28 321.30 65.80Q316.61 68.32 310.66 68.32ZM310.66 59.36L310.66 59.36Q313.39 59.36 315.56 58.10Q317.73 56.84 318.99 54.50Q320.25 52.15 320.25 48.93L320.25 48.93Q320.25 45.64 318.99 43.33Q317.73 41.02 315.56 39.76Q313.39 38.50 310.66 38.50L310.66 38.50Q307.93 38.50 305.76 39.76Q303.59 41.02 302.30 43.33Q301 45.64 301 48.93L301 48.93Q301 52.15 302.30 54.50Q303.59 56.84 305.76 58.10Q307.93 59.36 310.66 59.36ZM354.76 68.32L354.76 68.32Q349.44 68.32 345.17 65.91Q340.90 63.49 338.42 59.15Q335.93 54.81 335.93 48.93L335.93 48.93Q335.93 42.98 338.42 38.64Q340.90 34.30 345.17 31.92Q349.44 29.54 354.76 29.54L354.76 29.54Q359.52 29.54 363.09 31.64Q366.66 33.74 368.62 38.01Q370.58 42.28 370.58 48.93L370.58 48.93Q370.58 55.51 368.69 59.82Q366.80 64.12 363.26 66.22Q359.73 68.32 354.76 68.32ZM356.65 59.36L356.65 59.36Q359.31 59.36 361.48 58.10Q363.65 56.84 364.94 54.50Q366.24 52.15 366.24 48.93L366.24 48.93Q366.24 45.64 364.94 43.33Q363.65 41.02 361.48 39.76Q359.31 38.50 356.65 38.50L356.65 38.50Q353.92 38.50 351.75 39.76Q349.58 41.02 348.29 43.33Q346.99 45.64 346.99 48.93L346.99 48.93Q346.99 52.15 348.29 54.50Q349.58 56.84 351.75 58.10Q353.92 59.36 356.65 59.36ZM376.95 67.76L366.52 67.76L366.52 60.06L366.73 48.86L366.03 37.73L366.03 15.82L376.95 15.82L376.95 67.76ZM405.72 68.32L405.72 68.32Q399.28 68.32 394.42 65.80Q389.55 63.28 386.89 58.91Q384.23 54.53 384.23 48.93L384.23 48.93Q384.23 43.26 386.86 38.89Q389.48 34.51 394.03 32.02Q398.58 29.54 404.32 29.54L404.32 29.54Q409.85 29.54 414.30 31.89Q418.74 34.23 421.33 38.61Q423.92 42.98 423.92 49.07L423.92 49.07Q423.92 49.70 423.85 50.51Q423.78 51.31 423.71 52.01L423.71 52.01L393.12 52.01L393.12 45.64L417.97 45.64L413.77 47.53Q413.77 44.59 412.58 42.42Q411.39 40.25 409.29 39.03Q407.19 37.80 404.39 37.80L404.39 37.80Q401.59 37.80 399.46 39.03Q397.32 40.25 396.13 42.45Q394.94 44.66 394.94 47.67L394.94 47.67L394.94 49.35Q394.94 52.43 396.31 54.78Q397.67 57.12 400.16 58.35Q402.64 59.57 406 59.57L406 59.57Q409.01 59.57 411.29 58.66Q413.56 57.75 415.45 55.93L415.45 55.93L421.26 62.23Q418.67 65.17 414.75 66.75Q410.83 68.32 405.72 68.32Z" transform="translate(0, 0)"></path></g></svg></g></svg>